<svg xmlns="http://www.w3.org/2000/svg" viewBox="0 0 64 64"><defs><linearGradient id="b" x2="1" y2="1"><stop stop-color="#6750a4"/><stop offset="1" stop-color="#d5a6e6"/></linearGradient></defs><rect width="64" height="64" rx="32" fill="url(#b)"/><path d="M16 57c2-12 9-18 16-18s14 6 16 18" fill="#f7eee6"/><circle cx="32" cy="28" r="14" fill="#d99d74"/><path d="M18 28c0-12 7-18 15-18 9 0 15 7 15 18-5-5-10-7-16-7s-10 2-14 7Z" fill="#2c2540"/><path d="M25 30h2m10 0h2" stroke="#30263a" stroke-width="2.5" stroke-linecap="round"/><path d="M27 35c3 2 7 2 10 0" fill="none" stroke="#8f4d42" stroke-width="1.6" stroke-linecap="round"/><path d="M12 17l8 3-6 6m38-9-8 3 6 6" fill="#f0d486"/></svg>