<svg xmlns="http://www.w3.org/2000/svg" viewBox="0 0 64 64"><defs><linearGradient id="b" x2="1" y2="1"><stop stop-color="#294f43"/><stop offset="1" stop-color="#8fb79b"/></linearGradient></defs><rect width="64" height="64" rx="32" fill="url(#b)"/><path d="M13 59c3-13 10-19 19-19s17 6 20 19" fill="#d9e2cf"/><circle cx="32" cy="28" r="14" fill="#e0b184"/><path d="M18 26c1-11 7-16 15-16 8 0 14 6 14 17-6-3-10-8-11-12-4 6-10 9-18 11Z" fill="#f0e8d5"/><path d="M24 29h4m8 0h4" stroke="#45554d" stroke-width="2" stroke-linecap="round"/><circle cx="26" cy="29" r="5" fill="none" stroke="#45554d" stroke-width="1.5"/><circle cx="38" cy="29" r="5" fill="none" stroke="#45554d" stroke-width="1.5"/><path d="M31 29h2m-5 7c3 2 6 2 9 0" stroke="#8a5748" stroke-width="1.5" fill="none" stroke-linecap="round"/></svg>